<?xml version="1.0" encoding="UTF-8"?>
<svg xmlns="http://www.w3.org/2000/svg" viewBox="-55 -55 484 484">
  <rect x="-55" y="-55" width="484" height="484" fill="#ffffff"/>
  <g transform="translate(-153, 4)">
    <path fill="#33a690" d="m327 49 2.71-.19 2.7-.13 2.7-.09 2.7-.03 2.71.01 2.76.07 2.8.14L349 49l1.57.17 1.6.19 1.63.2 1.64.24 1.63.24 1.62.25 1.61.26 1.58.26 1.52.25 1.48.25 2.86.52 2.7.56L373 53l2.44.7 2.2.75 1.9.68L381 56l.71 1.6.29 1.4-1.77.06-2.47.09-2.74.1-2.9.13-2.78.09-2.77.12-2.8.17L361 60l-2.65.33-2.56.44-2.46.54L351 62l-2.1.93-1.98 1.06-1.89 1.14-1.84 1.18-1.9 1.15-1.87 1.15-1.78 1.19L336 71l-1.43 1.23-1.3 1.25-1.18 1.26L331 76l-1 1.25-.91 1.25-.87 1.25-.85 1.25-.86 1.25-.86 1.25L324 86l-1.57 2.29-.74 1.25L321 91l-.61 1.86-.56 2.07-.52 2.2-.5 2.3-.51 2.45-.5 2.46-.43 2.42L317 109l-.26 1.8-.17 1.61-.1 1.58-.03 1.57.02 1.63.1 1.74.16 1.88.28 2.19.41 2.75.24 1.5.27 1.54.28 1.58.3 1.6.3 1.64.32 1.64.34 1.64.34 1.64.35 1.63.35 1.62.37 1.61.37 1.59.38 1.54.38 1.48.76 2.68.77 2.48.77 2.35.76 2.24.78 2.2.75 2.12.73 2.02.68 1.91.57 1.76.52 1.67.5 1.62.47 1.57.47 1.55.48 1.55.48 1.59.51 1.69.57 1.91.61 2.02.63 2.08.63 2.05.55 1.86.57 1.86q.3.98.64 1.98l.8 2.24 1.13 2.75.63 1.48.65 1.52.65 1.55.66 1.57.65 1.58.63 1.55.56 1.49.53 1.46.5 1.46.5 1.46.5 1.47.5 1.49.48 1.5.5 1.55.5 1.6.53 1.64.52 1.66.5 1.66.5 1.66.48 1.65.46 1.64.44 1.61.4 1.57.37 1.54.34 1.52.33 1.5.6 2.93.52 2.81.51 2.61.43 2.51.33 2.47.17 2.54-.08 2.83-.24 2.87-.32 2.77L353 265l-.32 1.99-.34 1.73-.4 1.62-.44 1.6-.51 1.76-.58 1.8-.66 1.77L349 279l-.9 1.66-.98 1.62-1.06 1.57-1.12 1.52-1.17 1.5-1.21 1.44-1.26 1.38L340 291l-1.33 1.23-1.35 1.15-1.37 1.1-1.39 1.02-1.4.97-1.4.91-1.39.85-1.37.77-2.64 1.3-2.55 1.07-2.23.84-2.58.79-1.75.53-1.96.55-2.09.5-2.2.42-2.26.22-2.33.12-2.41.04h-2.5l-2.65-.02-2.68-.05-2.65-.12L291 305l-2.22-.27-2.08-.35-2-.4-1.95-.48-1.94-.53-1.94-.58-1.92-.66L275 301l-2.05-.83-2.08-.9-2.07-.96-2.05-1-2-1.03-1.97-1.06-1.92-1.1L259 293l-1.78-1.16-1.72-1.18-1.64-1.19-1.55-1.16-1.42-1.08-1.34-1.05-1.28-1.07L247 284l-1.33-1.26-1.31-1.3-1.25-1.26L242 279l-1.62-1.84-1.38-1.66-1.54-1.83L236 272l-1.21-1.17-1.16-1.08-1.21-1.18L231 267l-.93-1.16-1.02-1.31-1.05-1.4-1.06-1.44-1.06-1.46-1.02-1.46-.98-1.43L223 256l-1.26-2.21-.99-1.98-.9-1.94L219 248l-.91-1.74-.96-1.82-1-2L215 240l-.7-1.56-.75-1.72-.77-1.82-.78-1.9-.78-1.95-.77-1.99-.74-2.03L209 225l-.63-2-.57-2-.54-2-.51-2-.48-2.03-.46-2.02-.42-2L205 209l-.36-1.84-.33-1.8-.3-1.8-.26-1.81-.23-1.83-.2-1.89-.17-1.95L203 194l-.12-2.3-.1-2.42-.07-2.49-.02-2.54v-2.55l.06-2.57.1-2.58.15-2.55.24-2.5.3-2.47.33-2.44.38-2.4.41-2.4.44-2.34.45-2.28.45-2.17.4-1.98.4-1.88.43-1.83.46-1.81.48-1.79.54-1.81.6-1.87.69-2.03.87-2.35.96-2.49 1-2.52 1.05-2.52 1.05-2.47 1.05-2.37 1.03-2.26.99-2.02.89-1.62.82-1.38 1.54-2.31 1.45-1.99 1.3-1.7 1.05-1.58.95-1.48.97-1.44L228 106l1.16-1.69 1.34-1.87 1.56-2.04.9-1.14L234 98l1.25-1.47 1.38-1.58 1.47-1.64 1.53-1.69 1.57-1.7 1.6-1.68 1.61-1.66L246 85l1.5-1.42 1.45-1.32 1.46-1.28 1.47-1.23 1.48-1.21 1.5-1.2 1.54-1.17L258 75l1.71-1.2 1.77-1.2 1.79-1.19 1.8-1.16 1.78-1.13 1.77-1.08 1.73-1.05L272 66l1.51-.9 1.43-.85 1.4-.8 1.35-.76 1.34-.73 1.33-.69L283 60l2.7-1.11 2.74-1.01 2.78-.95L294 56l2.62-1.03 2.75-1.03 1.47-.5 1.57-.5 1.7-.47L306 52l2.23-.47 2.43-.45 2.55-.43 2.66-.4 2.73-.37 2.78-.34 2.82-.3zm-11 138-2.5 1.06-1.44.67-1.5.7-1.48.7-1.45.68L305 192l-1.43.57-1.57.43-1.81.11-1.98-.01-2.16-.01-2.24-.03-2.27-.01-2.15-.02-1.97-.02L286 193l.96 1.24 1.3 1.64 1.39 1.66L291 199l1.96 1.28 1.85.66 2.08.65 2.11.41 2.08.1 2.05-.16 1.99-.37L307 201l1.7-.8 1.55-.95 1.43-1.08L313 197l1.22-1.2 1.1-1.24.93-1.25.75-1.31.75-2.81.25-2.19zm-56 17-.83 1.1-.98 1.53-1.31 1.64L255 210l-1.4.86-1.57.84-1.68.82-1.72.8-1.64.76-1.64.72-1.63.65-1.72.55-1.97.39-1.94.28-1.8.2-1.29.13v3l1.22.7 1.72.86 1.94.82 2.12.62 2.19.19 2.25-.13 2.28-.36 2.28-.7 2.25-1.2 2.13-1.49 1.96-1.63L259 216l1.16-1.52.84-1.48.61-1.48.39-1.52.17-1.71.02-1.66L262 204zm38 38-2.77.7-2.54.93-2.41 1.12L288 246l-2.18 1.29-2.07 1.4-1.93 1.54L280 252l-1.76 2.21-1.61 2.35-1.4 2.2L274 261l-1.16 2.63L272 266l-.12 2.31.12 1.69h2l1.36-2.28.79-1.4.85-1.32 1.92-1.8 2.27-1.64 1.26-.88 1.38-.9 1.5-.9L287 258l1.97-.88 2.1-.87 2.15-.83 2.15-.8 2.1-.75 2-.7 1.77-.62L303 252l1.95-.55L307 251l2.1-.2 2.23-.12 2.42-.12 2.5-.12 2.55-.13 2.4-.13 2.21-.1L325 250l-.95-1.03-1.3-1.36-1.39-1.38L320 245l-2-1.14-2-.67-2.35-.68L311 242l-1.52-.18-1.6-.14-1.64-.08-1.68-.04-1.68.02-1.67.07-1.64.14z"/>
    <path fill="#fe7a55" d="m362 66 2.49-.1 2.51-.03 2.31.06L371 66v2l-1.57 1.11-2.12 1.2-2.2 1.34L363 73l-1.57 1.23-1.3 1.2-1.16 1.26L358 78l-.75 1.37-.56 1.44-.4 1.53L356 84l-.22 1.91-.1 2.03.07 2.04L356 92l.5 1.89.69 1.8.84 1.72L359 99l1 1.4 1.12 1.29 1.32 1.19L364 104l1.94 1.13 2.18 1.06 2.26.9 2.62.91 2.47.6 2.6.49 2.92.5 1.5.22 1.51.19 2.9.2 2.89.1 2.91.09 2.92.05 2.95.04 2.9.08 2.82.14 2.71.3 2.58.58 2.39.73 2.18.82 1.85.87 2.34 1.73 1.6 1.9 1.68 2.13L423 122l.91 2.24.59 2.26.37 2.25.13 2.25-.12 2.35-.26 2.21-.33 2L424 139h2l.88-2.12.54-1.4.58-1.48 1.19-2.69.5-1.53.31-1.78-.03-2.25-.22-2.5-.32-2.61L429 118l-.52-2.52-.54-2.48-.52-2.5-.42-2.5-.23-2.53-.08-2.53.05-2.5L427 98l.57-2.42.74-2.33.85-2.23L430 89l.66-1.65.65-1.47.75-1.4L433 83l1.31-1.85 1.5-1.9 1.56-1.77L439 76l1.72-.89 1.65-.55L445 74l1 2-.94 2.44-.56 1.61L444 82l-.28 2.42-.1 2.7.07 2.88.12 1.5.19 1.5.29 1.51.36 1.52.43 1.52.48 1.51.53 1.52.58 1.51.63 1.48.7 1.43.78 1.34.83 1.29.87 1.26.9 1.24.91 1.25.92 1.23L455 115l1.5 2.1 1.44 2.21 1.46 2.5.76 1.46.84 1.73.97 2.17 1.04 2.43 1.06 2.58 1.05 2.7 1.04 2.73 1 2.77.97 2.81.87 2.81.73 2.77.63 2.72.57 2.68.5 2.58.47 2.41.4 2.32.37 2.28.33 2.24.3 2.24.28 2.23.23 2.25.19 2.28.14 2.32.1 2.38.05 2.44.02 2.55.01 2.72-.04 2.82-.1 2.87-.18 2.9-.33 2.89-.42 2.88-.48 2.85-.52 2.82-.55 2.8-.57 2.73-.57 2.6L470 218l-.48 2.1-.46 1.9-.46 1.8-.47 1.7-.5 1.67-.52 1.62-.55 1.6L466 232l-.58 1.67-.62 1.7-.66 1.71-.7 1.73-.74 1.72-.8 1.75-.89 1.8L460 246l-1.23 2.13-1.36 2.21-1.4 2.24-1.45 2.23-1.44 2.19-1.43 2.11-1.39 2.02L449 263l-1.15 1.61-1.04 1.43-.98 1.3-.9 1.16-1.59 2.03L442 272l-2 1-1.34 2.29-.78 1.36L437 278l-1.03 1.14-1.13 1.07-1.2 1.07-1.26 1.1-1.34 1.17-1.37 1.19-1.36 1.16L427 287l-2.23 1.86-2.14 1.7-2.23 1.69L418 294l-1.37.98-1.44 1.02-1.48 1.03-1.52 1.03-1.53 1.02-1.55 1-1.55.98-1.56.94-1.54.87-1.54.83-1.53.79-1.51.76-1.52.74-1.49.7-1.46.68-1.41.63-2.59 1.12-2.47 1-2.47.95-2.47.93-2.5 1.03-2.63 1.03-2.75 1-1.5.48-1.62.46-1.87.45-2 .43-2.05.41-2.08.4-2.1.37-2.05.35-2 .31-1.85.28-2.94.4-2.62.29-2.62.19-2.82.12-1.68.07-1.8.05-1.86.04-1.91.03h-1.92l-1.93-.03-1.95-.06-1.95-.1-1.92-.17-1.91-.2-1.9-.25-1.9-.25-1.85-.27-1.84-.28-1.83-.29L316 318l-1.92-.3-1.91-.28-1.84-.28-1.77-.26-1.7-.27-1.54-.24L303 316l-1-3 1.63-.3 2.37-.45 2.76-.57 1.56-.33L312 311l1.83-.36 1.94-.38 2-.42 2.04-.47 2.07-.5 2.07-.55 2.06-.61L328 307l1.88-.85 1.8-.94 1.72-1 1.66-1.02 1.62-1.05 1.54-1.06 1.45-1.05L341 299l2.22-1.86 1.84-1.76 1.59-1.73L348 292l1.16-1.52 1.03-1.48.84-1.4.97-1.6.97-1.56 1-1.65 1.06-1.86.97-1.93.7-1.86.57-1.87.5-1.91.48-1.99.5-2.12.48-2.15.42-2.12.35-1.98.24-1.66.15-1.53.11-3-.03-1.54-.1-1.62-.15-1.73L360 250l-.3-2.28-.36-2.5-.42-2.6-.48-2.68-.52-2.71-.58-2.73-.63-2.76L356 229l-.81-2.69-.87-2.65-.9-2.6-.92-2.56-.92-2.51-.9-2.44-.88-2.34-.8-2.21-.66-2.02-.57-1.87-.53-1.77-.49-1.65-.47-1.6-.45-1.48L345 196l-.77-1.89-.73-1.61-.72-1.58L342 189l-.45-1.37-.48-1.55-.5-1.63-.5-1.7-.52-1.72-.52-1.72-.52-1.7L338 176l-.97-2.69-.97-2.56-1-2.7-.51-1.45-.55-1.6-.6-1.84-.62-2-.64-2.07-.64-2.15-.64-2.16-.63-2.2-.62-2.26L329 148l-.6-2.44-.57-2.48-.56-2.45-.52-2.38-.5-2.27-.45-2.15-.42-2.04L325 130l-.59-2.46L324 125l-.14-1.94-.1-2.21-.05-2.33-.02-2.46v-2.55l.04-2.57.1-2.54.17-2.4.28-2.09.37-1.92.43-1.82.48-1.73.53-1.7.58-1.65.64-1.58L328 92l.76-1.45.82-1.39.85-1.32.88-1.28.92-1.22.93-1.17L335 82l1.59-1.92 1.6-1.77 1.73-1.65L342 75l1.35-.94 1.48-.97 1.53-.96 1.58-.94 1.58-.9 1.56-.84 1.52-.78L354 68l2.23-.88 1.96-.56 1.85-.36zm6 96-2.82.97-1.4.62-1.34.66-2.5 1.33L358 167l-.78 1.67L357 170l2.1-.18 2.96-.13 1.6-.04 1.68.02 1.79.1 1.87.23 2 .48 2.03.6 2.03.66 2 .7 1.95.7 1.84.67 1.62.62 1.53.57 1.7.57 1.3.43v-2.56l-.28-1.64-.72-1.8-1.5-1.92-1.94-1.9-2.19-1.75L378 163l-2.4-.84-2.48-.41-2.52-.1zm61 5-1.95.45-1.8.68-1.68.85L422 170l-1.54 1.18-1.4 1.26-1.21 1.18L417 175l-.13 2.16.13 1.84 2.38-.66 1.53-.4 1.65-.44 1.68-.42 1.66-.4 1.64-.38 1.46-.3 2-.27 1.63-.04 1.57.07 1.8.24 2.65.46 2.79.54 2.62.56 1.94.44-.31-2.33L445 173l-1.31-1.55-1.69-1.2-1.9-1.23L438 168l-2.22-.64-2.28-.36-2.3-.13zm-61 49 .75 2.13.57 1.38.68 1.49.78 1.46.9 1.48 1.08 1.52L374 227l1.43 1.57 1.63 1.56 1.85 1.48L381 233l2.37 1.27 2.63 1.1 2.85.93 1.52.38 1.63.32 1.77.24 1.85.18 1.9.1 1.92.04 1.93-.02 1.91-.1 1.9-.17L407 237l1.7-.38 1.6-.47 1.57-.54 1.5-.61 1.47-.66 1.43-.71 1.38-.78L419 232l1.35-.96 1.32-1.01 1.26-1.05 1.2-1.04 2.13-1.97L428 224l1.24-2.25.76-1.75-1.8.59-2.39.79-2.5.82-2.31.8-2.62 1.13-2.38.87-1.5.3-1.7.24-1.87.26-1.93.2-1.81.11-1.8.06-1.83.02h-1.87l-2-.02-1.99-.03-1.93-.06L394 226l-2.7-.2-2.36-.36-2.32-.53L384 224l-1.75-.77-1.9-.89-1.93-.94-1.92-.96-1.86-.96-1.73-.92-1.56-.84L370 217z"/>
  </g>
</svg>
