<svg xmlns="http://www.w3.org/2000/svg" viewBox="202.69 48.56 271.63 271.63"><path fill="#33a690" d="m327 49 2.714-.189 2.688-.135 2.702-.082c.893-.01 1.787-.02 2.709-.032l2.712.01 2.752.069 2.8.134L349 49c.517.055 1.034.11 1.567.165l1.61.192 1.627.212 1.637.228 1.632.242 1.621.252 1.606.26 1.575.261 1.524.25c.734.125.734.125 1.483.25l2.86.52 2.706.557L373 53l2.435.7 2.198.75 1.91.678L381 56l.71 1.597L382 59l-1.769.06-2.473.088-2.735.11-2.898.117c-.918.03-1.836.062-2.781.094l-2.774.117-2.807.172L361 60l-2.652.334-2.555.436-2.467.539L351 62l-2.107.926-1.975 1.062-1.885 1.143-1.846 1.181-1.904 1.147-1.865 1.154-1.774 1.182L336 71l-1.433 1.232-1.29 1.248-1.189 1.259L331 76l-.992 1.251-.922 1.249-.867 1.25-.844 1.25-.867 1.25-.86 1.25L324 86l-1.574 2.285-.738 1.255L321 91l-.61 1.855-.558 2.079-.52 2.191-.5 2.313c-.17.804-.34 1.61-.517 2.439l-.49 2.459-.439 2.425L317 109l-.257 1.802-.173 1.612-.1 1.577-.033 1.572.02 1.623.094 1.74.174 1.885L317 123l.412 2.748.243 1.495.263 1.55.28 1.577.295 1.605.31 1.632.322 1.643.331 1.642.34 1.639.35 1.63.358 1.62.366 1.612.373 1.584.377 1.544L322 148l.761 2.68.766 2.476.768 2.35.767 2.244.774 2.202.758 2.118.73 2.02L328 166l.574 1.76.52 1.67.493 1.618.476 1.577.47 1.544.475 1.554.481 1.586L332 179c.19.631.378 1.263.573 1.914l.607 2.02.632 2.077.625 2.052.55 1.855.572 1.867c.21.654.422 1.307.64 1.98L337 195l1.131 2.75.626 1.48.65 1.524.657 1.55.658 1.566.653 1.575L342 207l.56 1.487.528 1.461.511 1.46.499 1.46.494 1.471.49 1.489.487 1.505.493 1.542.516 1.607.521 1.64.517 1.654.509 1.661.496 1.659.48 1.65.463 1.64L350 232l.397 1.572.369 1.541.346 1.517.325 1.495.594 2.938.531 2.812.51 2.605.432 2.512.327 2.468L354 254l-.084 2.831-.232 2.868-.321 2.775L353 265l-.318 1.987-.338 1.728-.395 1.62-.449 1.603-.51 1.766-.58 1.8-.656 1.766L349 279l-.891 1.664-.988 1.613-1.06 1.57-1.123 1.528-1.169 1.49-1.214 1.44-1.26 1.382L340 291l-1.327 1.228-1.353 1.155-1.371 1.09-1.387 1.027-1.397.973-1.4.91-1.392.845L329 299l-2.64 1.305-2.548 1.07-2.23.836L319 303l-1.747.53-1.96.548-2.091.507L311 305l-2.259.223-2.335.113-2.407.045-2.499-.006-2.647-.014-2.681-.056c-.875-.04-1.75-.078-2.65-.118L291 305l-2.225-.272-2.072-.345-2.003-.41-1.95-.473-1.942-.525-1.933-.588-1.922-.655L275 301l-2.047-.83-2.078-.9-2.072-.956-2.053-1.002-2.008-1.03-1.965-1.063-1.918-1.094L259 293l-1.785-1.164-1.711-1.18-1.642-1.185-1.55-1.159-1.42-1.078-1.341-1.058-1.283-1.062L247 284l-1.334-1.258-1.31-1.293-1.242-1.269L242 279l-1.625-1.844L239 275.5l-1.54-1.828L236 272c-.4-.387-.8-.773-1.21-1.172l-1.165-1.078-1.207-1.184L231 267l-.931-1.157-1.018-1.316-1.049-1.392-1.065-1.447-1.057-1.462-1.025-1.453-.979-1.43L223 256l-1.262-2.21-.988-1.977-.898-1.946L219 248l-.914-1.742-.961-1.82-.992-2.004L215 240l-.696-1.558-.75-1.72-.77-1.82L212 233l-.78-1.948-.767-1.99-.748-2.027L209 225l-.627-2.004-.576-1.996-.54-1.997-.507-2.003-.483-2.026-.454-2.02-.422-2.003L205 209l-.36-1.842-.327-1.799-.298-1.8-.265-1.809-.232-1.833-.202-1.886-.171-1.953L203 194l-.125-2.297-.098-2.422-.062-2.49-.028-2.541.008-2.554.051-2.567.097-2.574L203 174l.239-2.504.296-2.469.338-2.434.377-2.405.412-2.394.436-2.345.453-2.28L206 155l.406-1.978.403-1.877c.14-.607.28-1.214.426-1.839l.452-1.806.484-1.785.536-1.817.596-1.872L210 140l.865-2.347.96-2.489 1.007-2.519 1.043-2.52 1.052-2.471 1.05-2.377 1.036-2.254L218 121l.886-1.62.825-1.376 1.539-2.317 1.453-1.984L224 112c.345-.52.69-1.042 1.047-1.578l.953-1.484.969-1.438L228 106l1.156-1.687 1.344-1.876 1.555-2.042.905-1.135L234 98l1.251-1.467 1.382-1.584 1.462-1.641 1.53-1.683 1.573-1.697 1.599-1.686 1.615-1.66L246 85l1.494-1.417 1.46-1.325 1.458-1.275 1.463-1.233 1.48-1.213 1.508-1.193 1.538-1.172L258 75l1.712-1.203 1.768-1.203 1.787-1.184 1.796-1.16 1.79-1.127 1.764-1.088 1.73-1.046L272 66l1.513-.907 1.432-.847 1.388-.8 1.354-.758 1.343-.728 1.33-.69c.87-.42 1.742-.838 2.64-1.27l2.703-1.113 2.735-1.012 2.785-.941L294 56l2.621-1.027 2.754-1.035 1.463-.5 1.568-.489 1.696-.479L306 52l2.227-.466 2.43-.452 2.556-.43 2.662-.402 2.727-.372 2.777-.335 2.817-.295zm-11 138-2.496 1.059-1.443.67-1.498.708-1.487.698-1.447.674L305 192l-1.427.568L302 193l-1.81.114-1.983-.016-2.158-.01-2.236-.025-2.272-.014-2.146-.014-1.974-.02L286 193l.96 1.244 1.302 1.635 1.388 1.66L291 199l1.957 1.277 1.856.66 2.074.657L299 202l2.082.094 2.043-.156 1.992-.364L307 201l1.695-.793 1.555-.957 1.434-1.082L313 197l1.223-1.2 1.09-1.238.94-1.257L317 192l.75-2.812L318 187zm-56 17-.832 1.102-.98 1.523-1.31 1.645L255 210l-1.391.857-1.582.842-1.682.82-1.72.793-1.64.77-1.633.719-1.636.65L242 216l-1.974.388-1.94.28-1.788.208L235 217v3l1.215.691 1.722.871 1.938.813L242 223l2.188.188 2.25-.125c.754-.12 1.508-.238 2.285-.36L251 222l2.246-1.203 2.129-1.484 1.96-1.637L259 216l1.164-1.52L261 213l.613-1.477L262 210c.055-.565.11-1.13.168-1.71l.02-1.665L262 204zm38 38-2.773.691-2.54.934-2.41 1.121L288 246l-2.184 1.285-2.066 1.403-1.93 1.539L280 252c-.58.73-1.16 1.46-1.758 2.21l-1.617 2.352-1.398 2.192L274 261l-1.156 2.633L272 266l-.125 2.313L272 270h2l1.363-2.285.784-1.387L277 265l1.918-1.809 2.27-1.628 1.266-.884 1.378-.902 1.495-.89L287 258l1.966-.882 2.108-.864 2.15-.832 2.151-.797 2.09-.76 1.996-.7 1.775-.612L303 252l1.95-.553L307 251l2.106-.205 2.222-.111 2.422-.127 2.5-.12 2.547-.13 2.406-.123 2.208-.108L325 250l-.953-1.03-1.297-1.357-1.39-1.384L320 245l-2-1.145-2-.667c-.775-.225-1.55-.45-2.348-.68L311 242l-1.519-.185-1.602-.135-1.644-.085-1.673-.032-1.682.015c-.55.025-1.102.05-1.67.074l-1.64.137z"/><path fill="#fe7a55" d="m362 66 2.488-.105 2.512-.02 2.313.055L371 66v2l-1.574 1.113-2.113 1.2-2.208 1.335L363 73l-1.574 1.227-1.301 1.21-1.16 1.258L358 78l-.746 1.367-.567 1.445-.406 1.524L356 84l-.219 1.914-.094 2.023.063 2.047L356 92l.5 1.89.688 1.797.847 1.72L359 99l.996 1.406 1.129 1.281 1.313 1.188L364 104l1.938 1.125 2.187 1.063 2.257.904L373 108l2.474.6 2.604.486 2.917.506 1.503.223c.496.06.991.122 1.502.185l2.9.203 2.89.106 2.913.076 2.922.052 2.945.042 2.907.08 2.817.146L407 111l2.575.576 2.39.733c.72.27 1.44.54 2.181.82.918.43.918.43 1.854.871l2.34 1.727 1.598 1.898 1.683 2.133L423 122l.91 2.242.59 2.258.367 2.246L425 131l-.117 2.348-.258 2.214-.336 2.004L424 139h2l.875-2.125.543-1.402L428 134l1.188-2.687.496-1.528L430 128l-.027-2.254-.223-2.496-.324-2.61L429 118l-.52-2.516-.543-2.484-.515-2.496L427 108l-.234-2.535-.079-2.528.055-2.488L427 98l.57-2.418.743-2.332.843-2.227L430 89l.656-1.648.656-1.477.75-1.398L433 83l1.313-1.852 1.5-1.898 1.558-1.77L439 76l1.723-.887 1.652-.55L445 74l1 2-.937 2.438-.567 1.613L444 82l-.277 2.418-.098 2.707.066 2.879c.04.491.078.982.118 1.489L444 93l.289 1.511.363 1.516.427 1.518.483 1.517.527 1.522.579 1.506.634 1.48L448 105l.78 1.34.833 1.289.867 1.257.895 1.239.918 1.251.922 1.237L455 115l1.504 2.105 1.433 2.207 1.458 2.497.768 1.464L461 125l.974 2.168 1.038 2.43 1.054 2.581 1.059 2.696 1.04 2.733 1.003 2.775.958 2.81L469 146l.729 2.769.634 2.723.568 2.676.507 2.582.459 2.414.412 2.32.364 2.275L473 166l.306 2.236.272 2.237.232 2.25L474 175l.14 2.32.098 2.38.054 2.44.02 2.548.01 2.724-.037 2.822-.097 2.87L474 196l-.333 2.889-.42 2.877-.476 2.85-.521 2.821-.55 2.804-.567 2.724-.577 2.613L470 218l-.485 2.098-.46 1.906-.46 1.792-.47 1.704-.499 1.665-.52 1.628c-.18.528-.358 1.055-.542 1.6L466 232l-.583 1.667-.616 1.696-.66 1.718-.704 1.732-.736 1.717-.803 1.751-.883 1.805L460 246l-1.233 2.125-1.353 2.219-1.408 2.237-1.443 2.232-1.444 2.186-1.424 2.114-1.39 2.022L449 263l-1.15 1.61-1.045 1.433-.971 1.292-.897 1.165-1.597 2.031L442 272l-2 1-1.336 2.29-.78 1.36c-.292.445-.584.89-.884 1.35l-1.032 1.14-1.132 1.07-1.197 1.073-1.264 1.092-1.338 1.176-1.365 1.187-1.365 1.163L427 287l-2.234 1.855-2.141 1.707-2.223 1.688L418 294l-1.367.98-1.442 1.02-1.485 1.03-1.519 1.033-1.53 1.018-1.544 1.001-1.556.979L406 302l-1.545.873-1.537.826-1.526.791-1.517.76-1.513.738-1.49.707-1.462.673L394 308l-2.59 1.117c-1.224.5-1.224.5-2.473 1.008l-2.464.941L384 312l-2.504 1.027-2.621 1.036-2.758.992-1.49.48L373 316l-1.87.45-1.997.433-2.049.412c-.688.13-1.375.26-2.084.392l-2.094.373-2.058.346-2 .317L357 319l-2.941.406-2.622.281-2.613.188L346 320l-1.681.066c-.594.02-1.188.04-1.8.059l-1.861.04c-.944.012-.944.012-1.908.022h-1.918l-1.934-.027-1.95-.058L331 320l-1.925-.168c-.63-.07-1.261-.14-1.91-.21-.629-.08-1.257-.158-1.904-.238l-1.886-.259-1.857-.268-1.842-.279-1.83-.287L316 318l-1.92-.291-1.912-.287-1.84-.278-1.765-.269-1.704-.265-1.543-.243L303 316l-1-3 1.625-.297 2.375-.453 2.762-.57 1.556-.33L312 311l1.834-.358 1.936-.384 1.998-.422 2.045-.461 2.07-.498 2.07-.553 2.053-.616L328 307l1.877-.853 1.795-.94 1.727-.99 1.663-1.03 1.617-1.048 1.54-1.057 1.449-1.056L341 299l2.219-1.863 1.844-1.762 1.585-1.727L348 292l1.164-1.523 1.024-1.477.846-1.392c.32-.53.638-1.061.966-1.608l.973-1.556 1-1.655 1.058-1.862L356 279l.698-1.856.568-1.87.51-1.915.474-1.984.506-2.126.478-2.151.42-2.117L360 263l.236-1.665.155-1.526.109-2.997-.03-1.54-.091-1.624-.156-1.723L360 250l-.297-2.284-.363-2.49-.424-2.602-.478-2.686-.522-2.708-.576-2.734c-.21-.909-.418-1.818-.633-2.754L356 229l-.812-2.69-.872-2.65-.899-2.604-.917-2.556-.923-2.513-.905-2.436-.873-2.342L349 209l-.658-2.018-.576-1.877-.528-1.76c-.16-.547-.322-1.094-.488-1.657l-.473-1.592-.449-1.49L345 196l-.766-1.887-.734-1.613-.723-1.578L342 189l-.453-1.373-.48-1.549-.496-1.632-.509-1.696-.513-1.72-.518-1.718-.52-1.703L338 176l-.969-2.687-.969-2.563-.996-2.7c-.17-.48-.342-.96-.519-1.454L334 165l-.598-1.842-.625-1.99-.636-2.082-.641-2.149-.635-2.16-.63-2.203-.624-2.252L329 148l-.596-2.443-.576-2.475-.553-2.447-.525-2.385-.494-2.274-.46-2.148-.42-2.037L325 130l-.59-2.457L324 125l-.14-1.936-.098-2.216-.055-2.333-.02-2.453-.002-2.548.042-2.569.098-2.542L324 106l.284-2.09.364-1.918.429-1.818.486-1.737.528-1.705.58-1.646.636-1.575L328 92l.764-1.448.814-1.388.85-1.329.885-1.272.919-1.223.932-1.168L335 82l1.586-1.922 1.601-1.766 1.735-1.648L342 75l1.35-.942 1.478-.972 1.535-.96 1.575-.939 1.582-.899 1.558-.843 1.518-.776L354 68l2.234-.883 1.954-.555 1.855-.363zm6 96-2.824.969-1.39.618-1.349.663-2.503 1.328L358 167l-.777 1.672L357 170l2.098-.176 2.964-.137 1.598-.036 1.684.02 1.781.097L369 170l1.992.475 2.04.603 2.03.662 2 .697 1.948.697 1.838.675 1.625.618L384 175c.56.19 1.12.38 1.697.574L387 176v-2.562l-.285-1.641L386 170l-1.496-1.922-1.942-1.89-2.19-1.754L378 163l-2.402-.84-2.473-.41-2.52-.094zm61 5-1.953.445-1.797.68-1.676.855L422 170l-1.543 1.176-1.394 1.262-1.215 1.183L417 175l-.129 2.16L417 179l2.379-.656 1.532-.412 1.651-.432 1.676-.423 1.664-.401 1.633-.373L429 176l2.004-.27 1.621-.042 1.574.074L436 176l2.645.457 2.793.543 2.62.563L446 178l-.312-2.328L445 173l-1.312-1.547L442 170.25l-1.906-1.234L438 168l-2.219-.64c-.753-.12-1.505-.238-2.281-.36l-2.297-.133zm-61 49 .75 2.125.566 1.387L370 221l.777 1.457.91 1.48 1.07 1.52L374 227l1.43 1.574 1.632 1.551 1.848 1.484L381 233l2.371 1.266 2.629 1.109 2.848.926 1.527.381L392 237c.584.08 1.168.16 1.769.244l1.852.174 1.894.106 1.923.038 1.93-.023 1.917-.098 1.891-.175L407 237l1.695-.38 1.614-.468 1.559-.543 1.507-.609 1.466-.656 1.425-.715 1.38-.777L419 232l1.354-.958 1.318-1.015 1.26-1.045 1.193-1.044 2.133-1.973L428 224l1.242-2.246L430 220l-1.793.586-2.394.789-2.504.828L421 223l-2.625 1.125L416 225l-1.506.298-1.685.245-1.878.252L409 226l-1.813.111-1.8.057-1.827.023-1.873-.004-1.991-.013-1.993-.033-1.932-.06L394 226l-2.703-.203-2.36-.36-2.316-.53L384 224l-1.75-.766-1.902-.89-1.928-.94-1.92-.966-1.856-.962-1.738-.917-1.552-.835L370 217z"/></svg>